<svg xmlns="http://www.w3.org/2000/svg" version="1.1" xmlns:xlink="http://www.w3.org/1999/xlink" xmlns:svgjs="http://svgjs.dev/svgjs" width="1000" height="1125" viewBox="0 0 1000 1125"><g transform="matrix(1,0,0,1,0,0)"><svg viewBox="0 0 320 360" data-background-color="#ffffff" preserveAspectRatio="xMidYMid meet" height="1125" width="1000" xmlns="http://www.w3.org/2000/svg" xmlns:xlink="http://www.w3.org/1999/xlink"><g id="tight-bounds" transform="matrix(1,0,0,1,0,0)"><svg viewBox="0 0 320 360" height="360" width="320"><g><svg></svg></g><g><svg viewBox="0 0 320 360" height="360" width="320"><g><path d="M320 187.111c0-45.764-20.238-86.866-52.203-114.908-28.043-31.964-69.145-52.203-114.908-52.203-84.302 0-152.889 68.587-152.889 152.889 0 45.753 20.231 86.848 52.185 114.891 28.043 31.975 69.152 52.22 114.926 52.22 0.299 0 0.59-0.021 0.889-0.021 0.299 0 0.59 0.021 0.889 0.021 83.456 0 151.111-67.655 151.111-151.111 0-0.299-0.021-0.59-0.021-0.889 0-0.299 0.021-0.59 0.021-0.889zM59.833 263.097c-15.093-21.255-24.071-47.143-24.256-75.097 0.48-72.928 59.492-131.943 132.423-132.423 27.954 0.185 53.845 9.163 75.097 24.256 24.366 23.627 39.57 56.64 39.57 93.056 0 71.559-58.219 129.778-129.778 129.778-36.416 0-69.429-15.204-93.056-39.57zM3.556 172.889c0-82.343 66.99-149.333 149.333-149.333 35.051 0 67.292 12.167 92.8 32.462-22.98-13.824-49.863-21.796-78.578-21.796-84.302 0-152.889 68.587-152.889 152.889 0 28.708 7.968 55.584 21.785 78.56-20.288-25.5-32.452-57.739-32.451-92.782zM167.111 318.667c-35.84 0-68.363-14.418-92.107-37.743 21.952 15.89 48.864 25.298 77.885 25.298 73.522 0 133.333-59.812 133.333-133.333 0-29.02-9.408-55.932-25.298-77.885 23.324 23.744 37.742 56.267 37.743 92.107 0 72.54-59.015 131.556-131.556 131.556z" fill="#ff0000" fill-rule="nonzero" stroke="none" stroke-width="1" stroke-linecap="butt" stroke-linejoin="miter" stroke-miterlimit="10" stroke-dasharray="" stroke-dashoffset="0" font-family="none" font-weight="none" font-size="none" text-anchor="none" style="mix-blend-mode: normal" data-fill-palette-color="tertiary"></path></g><g transform="matrix(1,0,0,1,111.64016172506739,99)"><svg viewBox="0 0 96.71967654986523 162" height="162" width="96.71967654986523"><g><svg viewBox="0 0 96.71967654986523 162" height="162" width="96.71967654986523"><g><svg viewBox="0 0 96.71967654986523 162" height="162" width="96.71967654986523"><g><svg viewBox="0 0 96.71967654986523 162" height="162" width="96.71967654986523"><g id="textblocktransform"><svg viewBox="0 0 96.71967654986523 162" height="162" width="96.71967654986523" id="textblock"><g><svg viewBox="0 0 96.71967654986523 162" height="162" width="96.71967654986523"><g transform="matrix(1,0,0,1,0,0)"><svg width="96.71967654986523" viewBox="2.98 -35.94 21.63 36.23" height="162" data-palette-color="#ff0000"><path d="M6.93-35.5L6.93-35.5Q7.13-35.55 7.28-35.64 7.42-35.74 7.62-35.74L7.62-35.74Q7.76-35.69 7.84-35.55 7.91-35.4 8.06-35.3L8.06-35.3Q8.2-35.4 8.33-35.5 8.45-35.6 8.59-35.64L8.59-35.64Q9.08-35.5 9.13-35.16L9.13-35.16Q9.38-35.06 9.57-34.94 9.77-34.81 10.01-34.77L10.01-34.77Q10.11-34.57 10.25-34.47 10.4-34.38 10.6-34.18L10.6-34.18Q11.08-34.08 11.89-33.64 12.7-33.2 13.18-32.96L13.18-32.96Q13.67-32.71 14.16-32.47 14.65-32.23 15.09-31.93L15.09-31.93Q15.53-31.69 15.97-31.37 16.41-31.05 16.89-30.86L16.89-30.86Q17.33-30.32 18.02-30.18 18.7-30.03 19.24-29.64L19.24-29.64Q19.68-29.39 20.07-29.13 20.46-28.86 20.85-28.61L20.85-28.61Q21-28.37 21.22-28.22 21.44-28.08 21.63-27.83L21.63-27.83Q22.61-27.29 22.75-27L22.75-27Q22.9-26.9 23.19-26.71 23.49-26.51 23.78-26.29 24.07-26.07 24.32-25.85 24.56-25.63 24.61-25.44L24.61-25.44Q24.41-25 24.41-24.73 24.41-24.46 24.22-24.27L24.22-24.27Q24.51-23.88 24.51-23.54L24.51-23.54Q24.27-22.95 23.68-22.56L23.68-22.56Q23.54-22.17 23.22-21.95 22.9-21.73 22.8-21.34L22.8-21.34Q22.41-21.09 22.34-20.95 22.27-20.8 22.17-20.65L22.17-20.65Q21.24-19.68 20.43-18.97 19.63-18.26 18.95-17.43L18.95-17.43Q18.46-17.19 18.12-16.82 17.77-16.46 17.48-16.02L17.48-16.02Q17.09-15.63 16.72-15.26 16.36-14.89 15.97-14.55L15.97-14.55Q15.87-14.36 15.65-14.23 15.43-14.11 15.33-13.87L15.33-13.87Q14.79-13.62 14.45-13.18 14.11-12.74 13.62-12.45L13.62-12.45 13.28-11.96Q13.13-11.87 12.87-11.65 12.6-11.43 12.33-11.16 12.06-10.89 11.87-10.64 11.67-10.4 11.62-10.25L11.62-10.25Q11.47-10.21 11.16-9.96 10.84-9.72 10.52-9.42 10.21-9.13 9.94-8.84 9.67-8.54 9.62-8.45L9.62-8.45 9.13-8.11Q9.18-6.79 9.2-5.44 9.23-4.1 9.23-2.78L9.23-2.78 9.23-1.12 8.89-0.68Q8.64-0.68 8.5-0.78 8.35-0.88 8.15-0.88L8.15-0.88Q7.96-0.88 7.79-0.68 7.62-0.49 7.47-0.39L7.47-0.39Q7.13-0.34 6.91-0.22 6.69-0.1 6.45 0L6.45 0Q6.15-0.15 5.86-0.15L5.86-0.15Q5.22 0 5.25-0.1 5.27-0.2 5.03-0.2L5.03-0.2Q4.64 0.2 4.54 0.2L4.54 0.2Q4.35 0.2 4.17 0.24 4 0.29 3.81 0.29L3.81 0.29Q3.61-0.1 3.49-0.51 3.37-0.93 3.03-1.32L3.03-1.32Q3.17-1.81 2.98-2L2.98-2Q3.27-2.54 3.22-3.22 3.17-3.91 3.17-4.49L3.17-4.49Q3.17-4.83 3.2-5.15 3.22-5.47 3.22-5.76L3.22-5.76Q3.22-6.35 3.13-6.96 3.03-7.57 3.03-8.2L3.03-8.2Q3.03-9.67 3.13-11.16 3.22-12.65 3.22-14.11L3.22-14.11Q3.22-14.94 3.15-15.82 3.08-16.7 3.08-17.53L3.08-17.53Q3.08-18.07 3.13-18.53 3.17-18.99 3.22-19.43L3.22-19.43Q3.22-21.68 3.3-23.75 3.37-25.83 3.37-27.88L3.37-27.88Q3.37-28.56 3.34-29.17 3.32-29.79 3.32-30.47L3.32-30.47Q3.32-30.81 3.37-31.15 3.42-31.49 3.42-31.84L3.42-31.84Q3.56-33.35 3.56-34.86L3.56-34.86 3.52-35.64Q3.71-35.94 4.1-35.94L4.1-35.94Q4.64-35.94 4.93-35.6L4.93-35.6Q5.27-35.64 5.59-35.72 5.91-35.79 6.2-35.79L6.2-35.79Q6.64-35.79 6.93-35.5ZM9.91-27.88L9.81-27.73Q9.81-27.49 9.77-27.37 9.72-27.25 9.67-27.15L9.67-27.15Q9.67-27 9.69-26.83 9.72-26.66 9.72-26.46L9.72-26.46Q9.72-25.34 9.69-24.24 9.67-23.14 9.67-22.07L9.67-22.07 9.57-19.48Q9.57-19.24 9.62-18.95 9.67-18.65 9.67-18.41L9.67-18.41Q9.67-18.16 9.62-17.92 9.57-17.68 9.57-17.43L9.57-17.43Q9.57-16.8 9.72-16.16L9.72-16.16Q9.96-16.26 10.06-16.48 10.16-16.7 10.3-16.85L10.3-16.85Q11.43-17.87 12.4-18.99 13.38-20.12 14.4-21.24L14.4-21.24Q15.28-22.17 15.92-22.75 16.55-23.34 16.89-24.17L16.89-24.17Q16.06-24.71 15.19-25.27 14.31-25.83 13.33-26.22L13.33-26.22Q13.28-26.32 13.06-26.46 12.84-26.61 12.6-26.73 12.35-26.86 12.11-26.95 11.87-27.05 11.77-27.05L11.77-27.05Q11.33-27.44 10.84-27.54L10.84-27.54Q10.5-27.54 10.25-27.66 10.01-27.78 9.91-27.88L9.91-27.88Z" opacity="1" transform="matrix(1,0,0,1,0,0)" fill="#ff0000" class="wordmark-text-0" data-fill-palette-color="primary" id="text-0"></path></svg></g></svg></g></svg></g></svg></g></svg></g></svg></g></svg></g></svg></g><defs></defs></svg><rect width="320" height="360" fill="none" stroke="none" visibility="hidden"></rect></g></svg></g></svg>